Coordinates
version=1
nRows=21
nColumns=12
inDegrees=yes

Units are S.I. units (second, meters, Newtons, ...)
Angles are in degrees

endheader
time	SC_y	SC_z	SC_x	AC_y	AC_z	AC_x	GH_y	GH_z	GH_yy	EL_x	PS_y
       0.0              -29.16          28.17          83.05          38.58         -8.615          17.71          146.5         -15.08         -175.5          54.42          142.6
    0.0221              -29.16          28.17          83.04          38.58         -8.615          17.71          146.5         -15.07         -175.4          54.42          142.6
   0.04421              -29.15          28.17          83.04          38.58         -8.615          17.71          146.4         -15.06         -175.4          54.43          142.6
   0.06631              -29.15          28.17          83.03          38.59         -8.615          17.71          146.4         -15.04         -175.4          54.43          142.6
   0.08842              -29.15          28.17          83.03          38.59         -8.614          17.71          146.3         -15.03         -175.3          54.43          142.5
    0.1105              -29.15          28.17          83.02          38.59         -8.614          17.71          146.3         -15.02         -175.3          54.44          142.5
    0.1326              -29.15          28.17          83.01          38.59         -8.614          17.72          146.2          -15.0         -175.2          54.44          142.5
    0.1547              -29.14          28.17          83.01          38.59         -8.614          17.72          146.1         -14.98         -175.2          54.44          142.5
    0.1768              -29.14          28.17           83.0          38.59         -8.613          17.72          146.1         -14.96         -175.1          54.45          142.5
    0.1989              -29.14          28.17          82.99          38.59         -8.613          17.72          146.0         -14.95         -175.1          54.45          142.5
     0.221              -29.14          28.17          82.98          38.59         -8.613          17.72          145.9         -14.92         -175.0          54.46          142.5
    0.2431              -29.13          28.17          82.97          38.59         -8.613          17.72          145.8          -14.9         -174.9          54.47          142.5
    0.2652              -29.13          28.17          82.96           38.6         -8.612          17.72          145.7         -14.88         -174.8          54.47          142.5
    0.2873              -29.13          28.17          82.95           38.6         -8.612          17.72          145.6         -14.85         -174.8          54.48          142.5
    0.3095              -29.12          28.17          82.94           38.6         -8.611          17.72          145.5         -14.82         -174.7          54.49          142.4
    0.3316              -29.12          28.17          82.93           38.6         -8.611          17.72          145.4         -14.79         -174.6          54.49          142.4
    0.3537              -29.12          28.17          82.91           38.6         -8.611          17.72          145.3         -14.76         -174.5           54.5          142.4
    0.3758              -29.11          28.17           82.9          38.61          -8.61          17.72          145.1         -14.72         -174.3          54.51          142.4
    0.3979              -29.11          28.17          82.88          38.61         -8.609          17.72          145.0         -14.68         -174.2          54.52          142.4
      0.42               -29.1          28.17          82.86          38.61         -8.609          17.72          144.8         -14.64         -174.1          54.53          142.3
    0.4421               -29.1          28.17          82.84          38.61         -8.608          17.72          144.6         -14.59         -173.9          54.55          142.3
